<?xml version="1.0" encoding="utf-8"?>
<svg viewBox="0 0 500 500" xmlns="http://www.w3.org/2000/svg" xmlns:xlink="http://www.w3.org/1999/xlink">
  <defs>
    <linearGradient id="Degradado_sin_nombre_4" data-name="Degradado sin nombre 4" x1="398.3" y1="488.59" x2="641.53" y2="368.33" gradientUnits="userSpaceOnUse">
      <stop offset="0.32" stop-color="#e29700"/>
      <stop offset="0.95" stop-color="#ffed90"/>
    </linearGradient>
    <linearGradient id="Degradado_sin_nombre_4-2" data-name="Degradado sin nombre 4" x1="512.81" y1="520.99" x2="578.33" y2="520.99" xlink:href="#Degradado_sin_nombre_4"/>
    <linearGradient id="Degradado_sin_nombre_4-3" data-name="Degradado sin nombre 4" x1="627.93" y1="515.38" x2="703.21" y2="515.38" xlink:href="#Degradado_sin_nombre_4"/>
  </defs>
  <g transform="matrix(1.1200759410858154, 0, 0, 1.1164369583129883, -355.7425842285156, -231.56312561035156)" style="">
    <g>
      <path class="cls-3" d="M599.98,393.78c-8.31-60.24-32.3-45.65-49.69-72.15-18.54-28.25-48.1-5.76-64.66-16.34-58.16-37.15-101.46,13.55-107.47,48.78-7.73,116.85,16.32,89.35,97.95,160.67,0,0,3.38-11.54,8.13-37.34,4.8-26.11,1.44-51.53-20.44-78.01,36.56,27.63,33.22,56.88,32.09,71.11,2.26,11.74,24.14,25.17,37.04,17.61,22.55-13.21,43.2,5.09,47.1,12.06,1.83-10.04-7.69-19.64-20.22-31.94,0,0,19.77,4.1,29.58,25.58,15.86,34.71-20.77,71.17-76.81,74.04-97.28,4.99-109.49-90.93-109.49-90.93-5.16-5.16-15.1-10.39-24.06-21.48,10.68,66.43,36.94,122.86,105.25,137.07,60.69,12.62,114.1-19.37,135-43.97,49.67-58.46,13.33-138.32-19.3-154.78ZM537.97,362.66c11.95,4.41,19.86,14.89,18.82,31.5-4.36-11.11-8.2-9.88-12.06-11.44-3.86-1.55-8.27.44-12.07-8.12-3.9-8.78-9.93-14.54-18.13-13.97-.8.05,12.28-3.99,23.45,2.03" style="fill: url('#Degradado_sin_nombre_4'); stroke-width: 0px;"/>
      <path class="cls-2" d="M577.53,526.09c.29-.47.54-.95.81-1.42-13.03-7.64-22.58-19.58-29.11-30.33-3.69.04-7.22,1.07-10.8,3.17-4.18,2.45-8.95,3.69-14.19,3.69-3.79,0-7.66-.69-11.43-1.89,5.91,15.22,18.31,35.61,38.62,48.34,11.59-5.4,20.8-12.81,26.1-21.55Z" style="fill: url('#Degradado_sin_nombre_4-2'); stroke-width: 0px;"/>
      <path class="cls-4" d="M648,520.38c-4.47,12.5-11.18,24.22-20.07,34.78,44.96-16.12,71.78-64.66,75.28-79.56,0,0-26.06,28.32-55.21,44.78Z" style="fill: url('#Degradado_sin_nombre_4-3'); stroke-width: 0px;"/>
    </g>
    <path class="cls-5" d="M540,217c-117.64,0-213,95.36-213,213s95.36,213,213,213,213-95.36,213-213-95.36-213-213-213ZM540,626.86c-108.72,0-196.86-88.14-196.86-196.86s88.14-196.86,196.86-196.86,196.86,88.14,196.86,196.86-88.14,196.86-196.86,196.86Z" style="fill: rgb(248, 177, 51); stroke-width: 0px;"/>
  </g>
</svg>