<?xml version="1.0" encoding="UTF-8"?>
<svg id="Capa_1" data-name="Capa 1" xmlns="http://www.w3.org/2000/svg" xmlns:xlink="http://www.w3.org/1999/xlink" viewBox="0 0 1080 1080">
  <defs>
    <style>
      .cls-1 {
        fill: #000;
      }

      .cls-1, .cls-2, .cls-3, .cls-4, .cls-5, .cls-6 {
        stroke-width: 0px;
      }

      .cls-2 {
        fill: url(#Degradado_sin_nombre_4-2);
      }

      .cls-7 {
        fill: none;
        stroke: #f8b133;
        stroke-linecap: round;
        stroke-linejoin: round;
        stroke-width: 2px;
      }

      .cls-3 {
        fill: url(#Degradado_sin_nombre_4);
      }

      .cls-4 {
        fill: url(#Degradado_sin_nombre_4-3);
      }

      .cls-5 {
        fill: #f8b133;
      }

      .cls-6 {
        fill: #fff;
      }
    </style>
    <linearGradient id="Degradado_sin_nombre_4" data-name="Degradado sin nombre 4" x1="398.3" y1="488.59" x2="641.53" y2="368.33" gradientUnits="userSpaceOnUse">
      <stop offset=".32" stop-color="#e29700"/>
      <stop offset=".95" stop-color="#ffed90"/>
    </linearGradient>
    <linearGradient id="Degradado_sin_nombre_4-2" data-name="Degradado sin nombre 4" x1="512.81" y1="520.99" x2="578.33" y2="520.99" xlink:href="#Degradado_sin_nombre_4"/>
    <linearGradient id="Degradado_sin_nombre_4-3" data-name="Degradado sin nombre 4" x1="627.93" y1="515.38" x2="703.21" y2="515.38" xlink:href="#Degradado_sin_nombre_4"/>
  </defs>
  <rect class="cls-1" width="1080" height="1080"/>
  <line class="cls-7" x1="204.17" y1="704.64" x2="879.15" y2="704.64"/>
  <line class="cls-7" x1="204.17" y1="840.64" x2="879.15" y2="840.64"/>
  <g>
    <g>
      <path class="cls-3" d="M599.98,393.78c-8.31-60.24-32.3-45.65-49.69-72.15-18.54-28.25-48.1-5.76-64.66-16.34-58.16-37.15-101.46,13.55-107.47,48.78-7.73,116.85,16.32,89.35,97.95,160.67,0,0,3.38-11.54,8.13-37.34,4.8-26.11,1.44-51.53-20.44-78.01,36.56,27.63,33.22,56.88,32.09,71.11,2.26,11.74,24.14,25.17,37.04,17.61,22.55-13.21,43.2,5.09,47.1,12.06,1.83-10.04-7.69-19.64-20.22-31.94,0,0,19.77,4.1,29.58,25.58,15.86,34.71-20.77,71.17-76.81,74.04-97.28,4.99-109.49-90.93-109.49-90.93-5.16-5.16-15.1-10.39-24.06-21.48,10.68,66.43,36.94,122.86,105.25,137.07,60.69,12.62,114.1-19.37,135-43.97,49.67-58.46,13.33-138.32-19.3-154.78ZM537.97,362.66c11.95,4.41,19.86,14.89,18.82,31.5-4.36-11.11-8.2-9.88-12.06-11.44-3.86-1.55-8.27.44-12.07-8.12-3.9-8.78-9.93-14.54-18.13-13.97-.8.05,12.28-3.99,23.45,2.03"/>
      <path class="cls-2" d="M577.53,526.09c.29-.47.54-.95.81-1.42-13.03-7.64-22.58-19.58-29.11-30.33-3.69.04-7.22,1.07-10.8,3.17-4.18,2.45-8.95,3.69-14.19,3.69-3.79,0-7.66-.69-11.43-1.89,5.91,15.22,18.31,35.61,38.62,48.34,11.59-5.4,20.8-12.81,26.1-21.55Z"/>
      <path class="cls-4" d="M648,520.38c-4.47,12.5-11.18,24.22-20.07,34.78,44.96-16.12,71.78-64.66,75.28-79.56,0,0-26.06,28.32-55.21,44.78Z"/>
    </g>
    <path class="cls-5" d="M540,217c-117.64,0-213,95.36-213,213s95.36,213,213,213,213-95.36,213-213-95.36-213-213-213ZM540,626.86c-108.72,0-196.86-88.14-196.86-196.86s88.14-196.86,196.86-196.86,196.86,88.14,196.86,196.86-88.14,196.86-196.86,196.86Z"/>
  </g>
  <g>
    <path class="cls-5" d="M206.73,810.24v-75.28h39.71c14.37,0,21.72,9.14,21.72,19.19,0,9.48-5.88,15.8-13.01,17.27,8.03,1.24,14.48,9.03,14.48,18.51,0,11.29-7.58,20.32-21.95,20.32h-40.96ZM251.76,756.96c0-4.74-3.39-8.24-8.83-8.24h-20.14v16.37h20.14c5.43,0,8.83-3.39,8.83-8.13ZM253.24,787.66c0-4.74-3.39-8.8-9.73-8.8h-20.71v17.49h20.71c6.11,0,9.73-3.27,9.73-8.69Z"/>
    <path class="cls-5" d="M293.06,810.24v-75.28h53.41v14.11h-37.34v15.91h36.55v14.11h-36.55v17.04h37.34v14.11h-53.41Z"/>
    <path class="cls-5" d="M387.76,810.24v-61.17h-22.06v-14.11h60.19v14.11h-21.95v61.17h-16.18Z"/>
    <path class="cls-5" d="M464.92,810.24v-61.17h-22.06v-14.11h60.19v14.11h-21.95v61.17h-16.18Z"/>
    <path class="cls-6" d="M526.01,810.24v-75.28h30.32c15.16,0,23.65,10.38,23.65,22.69s-8.71,22.69-23.65,22.69h-20.93v29.91h-9.39ZM570.25,757.64c0-8.46-6.11-14.33-15.05-14.33h-19.8v28.67h19.8c8.94,0,15.05-5.87,15.05-14.33Z"/>
    <path class="cls-6" d="M647.41,810.24l-19.23-29.91h-15.05v29.91h-9.39v-75.28h30.32c13.8,0,23.65,8.8,23.65,22.69s-9.28,20.99-19.57,21.9l20.37,30.7h-11.09ZM647.98,757.64c0-8.46-6.11-14.33-15.05-14.33h-19.8v28.78h19.8c8.94,0,15.05-5.98,15.05-14.45Z"/>
    <path class="cls-6" d="M683.84,810.24v-75.28h9.39v75.28h-9.39Z"/>
    <path class="cls-6" d="M786.69,810.24v-61.96l-25.68,61.96h-3.85l-25.57-61.96v61.96h-9.39v-75.28h13.46l23.42,56.66,23.53-56.66h13.46v75.28h-9.39Z"/>
    <path class="cls-6" d="M825.04,810.24v-75.28h49.44v8.35h-40.05v24.27h39.26v8.35h-39.26v25.96h40.05v8.35h-49.44Z"/>
  </g>
</svg>