<?xml version="1.0" encoding="utf-8"?>
<!-- Generator: Adobe Illustrator 28.3.0, SVG Export Plug-In . SVG Version: 6.00 Build 0)  -->
<svg version="1.1" id="Capa_1" xmlns="http://www.w3.org/2000/svg" xmlns:xlink="http://www.w3.org/1999/xlink" x="0px" y="0px"
	 viewBox="0 0 1080 1080" style="enable-background:new 0 0 1080 1080;" xml:space="preserve">
<style type="text/css">
	.st0{fill:#F8B133;}
	.st1{fill:#333333;}
</style>
<g>
	<g>
		<path d="M919.57,738.96H160.43c-1.34,0-2.43-1.09-2.43-2.43c0-1.34,1.09-2.43,2.43-2.43h759.14c1.34,0,2.43,1.09,2.43,2.43
			C922,737.87,920.91,738.96,919.57,738.96z"/>
	</g>
	<g>
		<path d="M919.57,891.91H160.43c-1.34,0-2.43-1.09-2.43-2.43c0-1.34,1.09-2.43,2.43-2.43h759.14c1.34,0,2.43,1.09,2.43,2.43
			C922,890.83,920.91,891.91,919.57,891.91z"/>
	</g>
	<g>
		<g>
			<g>
				<path class="st0" d="M605.59,386.91c-9.34-67.75-36.33-51.34-55.88-81.14c-20.85-31.78-54.1-6.48-72.72-18.37
					c-65.42-41.78-114.11,15.24-120.87,54.86c-8.7,131.42,18.36,100.5,110.16,180.7c0,0,3.81-12.98,9.14-42
					c5.4-29.37,1.62-57.95-22.99-87.73c41.12,31.08,37.36,63.97,36.09,79.97c2.54,13.21,27.15,28.31,41.66,19.81
					c25.36-14.85,48.59,5.72,52.97,13.57c2.05-11.29-8.65-22.09-22.74-35.92c0,0,22.23,4.61,33.27,28.77
					c17.84,39.04-23.36,80.04-86.39,83.28c-109.4,5.62-123.14-102.27-123.14-102.27c-5.8-5.8-16.98-11.69-27.06-24.16
					c12.01,74.71,41.55,138.18,118.38,154.16c68.26,14.2,128.33-21.78,151.84-49.45C683.16,495.24,642.29,405.41,605.59,386.91z
					 M535.85,351.91c13.44,4.96,22.34,16.75,21.16,35.42c-4.91-12.5-9.22-11.12-13.56-12.86c-4.34-1.74-9.3,0.49-13.58-9.13
					c-4.39-9.87-11.17-16.35-20.4-15.71C508.58,349.69,523.29,345.15,535.85,351.91"/>
				<path class="st0" d="M580.34,535.72c0.32-0.53,0.61-1.07,0.91-1.6c-14.66-8.6-25.4-22.03-32.74-34.12
					c-4.14,0.05-8.12,1.21-12.14,3.56c-4.7,2.75-10.07,4.15-15.95,4.15c-4.26,0-8.62-0.77-12.86-2.13
					c6.65,17.12,20.6,40.05,43.43,54.37C564.03,553.88,574.38,545.54,580.34,535.72z"/>
				<path class="st0" d="M659.6,529.3c-5.02,14.06-12.58,27.24-22.57,39.12c50.56-18.13,80.73-72.72,84.66-89.48
					C721.69,478.93,692.39,510.79,659.6,529.3z"/>
			</g>
			<path d="M538.14,188.09c-132.3,0-239.56,107.25-239.56,239.56S405.83,667.2,538.14,667.2s239.56-107.25,239.56-239.56
				S670.44,188.09,538.14,188.09z M538.14,649.05c-122.28,0-221.4-99.13-221.4-221.4s99.12-221.4,221.4-221.4
				s221.4,99.13,221.4,221.4S660.41,649.05,538.14,649.05z"/>
		</g>
	</g>
	<g>
		<path class="st0" d="M163.31,855.29v-84.67h44.67c16.16,0,24.43,10.28,24.43,21.58c0,10.66-6.62,17.77-14.63,19.42
			c9.03,1.4,16.29,10.16,16.29,20.82c0,12.69-8.53,22.85-24.69,22.85H163.31z M213.96,795.38c0-5.33-3.82-9.27-9.93-9.27h-22.65
			v18.41h22.65C210.14,804.52,213.96,800.71,213.96,795.38z M215.62,829.91c0-5.33-3.82-9.9-10.94-9.9h-23.29v19.68h23.29
			C211.54,839.68,215.62,836,215.62,829.91z"/>
		<path class="st0" d="M260.4,855.29v-84.67h60.06v15.87h-41.99v17.9h41.1v15.87h-41.1v19.17h41.99v15.87H260.4z"/>
		<path class="st0" d="M366.91,855.29v-68.8H342.1v-15.87h67.7v15.87h-24.69v68.8H366.91z"/>
		<path class="st0" d="M453.69,855.29v-68.8h-24.81v-15.87h67.7v15.87h-24.69v68.8H453.69z"/>
		<path class="st1" d="M522.4,855.29v-84.67h34.1c17.05,0,26.6,11.68,26.6,25.51c0,13.84-9.8,25.51-26.6,25.51h-23.54v33.64H522.4z
			 M572.16,796.14c0-9.52-6.87-16.12-16.92-16.12h-22.27v32.24h22.27C565.29,812.26,572.16,805.66,572.16,796.14z"/>
		<path class="st1" d="M658.94,855.29l-21.63-33.64h-16.92v33.64h-10.56v-84.67h34.1c15.53,0,26.6,9.9,26.6,25.51
			c0,15.23-10.43,23.61-22.01,24.63l22.9,34.53H658.94z M659.58,796.14c0-9.52-6.87-16.12-16.92-16.12h-22.27v32.37h22.27
			C652.7,812.39,659.58,805.66,659.58,796.14z"/>
		<path class="st1" d="M699.91,855.29v-84.67h10.56v84.67H699.91z"/>
		<path class="st1" d="M815.58,855.29V785.6l-28.89,69.69h-4.33l-28.76-69.69v69.69h-10.56v-84.67h15.14l26.34,63.72L811,770.63
			h15.14v84.67H815.58z"/>
		<path class="st1" d="M858.71,855.29v-84.67h55.61v9.39h-45.05v27.29h44.16v9.39h-44.16v29.2h45.05v9.39H858.71z"/>
	</g>
</g>
</svg>
