<?xml version="1.0" encoding="utf-8"?>
<!-- Generator: Adobe Illustrator 28.3.0, SVG Export Plug-In . SVG Version: 6.00 Build 0)  -->
<svg version="1.1" id="Capa_1" xmlns="http://www.w3.org/2000/svg" xmlns:xlink="http://www.w3.org/1999/xlink" x="0px" y="0px"
	 viewBox="0 0 1080 1080" style="enable-background:new 0 0 1080 1080;" xml:space="preserve">
<style type="text/css">
	.st0{fill:#F8B133;}
	.st1{fill:#333333;}
</style>
<g>
	<g>
		<g>
			<path class="st0" d="M236.88,524.09c-3.65-26.45-14.18-20.05-21.82-31.68c-8.14-12.41-21.12-2.53-28.39-7.17
				c-25.54-16.31-44.55,5.95-47.2,21.42c-3.4,51.31,7.17,39.24,43.01,70.55c0,0,1.49-5.07,3.57-16.4
				c2.11-11.47,0.63-22.63-8.98-34.26c16.05,12.13,14.59,24.98,14.09,31.23c0.99,5.16,10.6,11.05,16.26,7.73
				c9.9-5.8,18.97,2.23,20.68,5.3c0.8-4.41-3.38-8.62-8.88-14.03c0,0,8.68,1.8,12.99,11.23c6.96,15.24-9.12,31.25-33.73,32.52
				c-42.72,2.19-48.08-39.93-48.08-39.93c-2.26-2.26-6.63-4.56-10.56-9.43c4.69,29.17,16.22,53.95,46.22,60.19
				c26.65,5.54,50.11-8.51,59.29-19.31C267.16,566.39,251.2,531.32,236.88,524.09z M209.64,510.43c5.25,1.94,8.72,6.54,8.26,13.83
				c-1.92-4.88-3.6-4.34-5.3-5.02c-1.69-0.68-3.63,0.19-5.3-3.56c-1.71-3.86-4.36-6.38-7.96-6.13
				C199,509.56,204.74,507.79,209.64,510.43"/>
			<path class="st0" d="M227.02,582.2c0.13-0.21,0.24-0.42,0.35-0.62c-5.72-3.36-9.92-8.6-12.78-13.32
				c-1.62,0.02-3.17,0.47-4.74,1.39c-1.84,1.08-3.93,1.62-6.23,1.62c-1.66,0-3.36-0.3-5.02-0.83c2.6,6.68,8.04,15.64,16.96,21.23
				C220.65,589.29,224.69,586.03,227.02,582.2z"/>
			<path class="st0" d="M257.96,579.69c-1.96,5.49-4.91,10.64-8.81,15.27c19.74-7.08,31.52-28.39,33.06-34.94
				C282.21,560.03,270.76,572.46,257.96,579.69z"/>
		</g>
		<path d="M210.54,446.46c-51.66,0-93.54,41.88-93.54,93.54s41.88,93.54,93.54,93.54s93.54-41.88,93.54-93.54
			S262.19,446.46,210.54,446.46z M210.54,626.45c-47.74,0-86.45-38.7-86.45-86.45s38.7-86.45,86.45-86.45s86.45,38.7,86.45,86.45
			S258.28,626.45,210.54,626.45z"/>
	</g>
	<g>
		<g>
			<path d="M961.08,481.48H361.17c-1.06,0-1.92-0.86-1.92-1.92s0.86-1.92,1.92-1.92h599.91c1.06,0,1.92,0.86,1.92,1.92
				S962.14,481.48,961.08,481.48z"/>
		</g>
		<g>
			<path d="M961.08,602.36H361.17c-1.06,0-1.92-0.86-1.92-1.92s0.86-1.92,1.92-1.92h599.91c1.06,0,1.92,0.86,1.92,1.92
				S962.14,602.36,961.08,602.36z"/>
		</g>
		<g>
			<path class="st0" d="M363.45,573.42v-66.91h35.3c12.77,0,19.31,8.13,19.31,17.05c0,8.43-5.23,14.04-11.56,15.35
				c7.14,1.1,12.87,8.03,12.87,16.45c0,10.03-6.74,18.06-19.51,18.06H363.45z M403.47,526.07c0-4.21-3.02-7.32-7.84-7.32h-17.9
				v14.55h17.9C400.45,533.29,403.47,530.28,403.47,526.07z M404.78,553.36c0-4.21-3.02-7.82-8.65-7.82h-18.4v15.55h18.4
				C401.56,561.08,404.78,558.17,404.78,553.36z"/>
			<path class="st0" d="M440.17,573.42v-66.91h47.47v12.54h-33.19v14.14h32.48v12.54h-32.48v15.15h33.19v12.54H440.17z"/>
			<path class="st0" d="M524.34,573.42v-54.37h-19.61v-12.54h53.5v12.54h-19.51v54.37H524.34z"/>
			<path class="st0" d="M592.92,573.42v-54.37h-19.61v-12.54h53.5v12.54H607.3v54.37H592.92z"/>
			<path class="st1" d="M647.22,573.42v-66.91h26.95c13.48,0,21.02,9.23,21.02,20.16c0,10.93-7.74,20.16-21.02,20.16h-18.6v26.58
				H647.22z M686.54,526.67c0-7.52-5.43-12.74-13.37-12.74h-17.6v25.48h17.6C681.11,539.41,686.54,534.2,686.54,526.67z"/>
			<path class="st1" d="M755.12,573.42l-17.1-26.58h-13.37v26.58h-8.35v-66.91h26.95c12.27,0,21.02,7.82,21.02,20.16
				c0,12.04-8.25,18.66-17.4,19.46l18.1,27.28H755.12z M755.62,526.67c0-7.52-5.43-12.74-13.37-12.74h-17.6v25.58h17.6
				C750.19,539.51,755.62,534.2,755.62,526.67z"/>
			<path class="st1" d="M787.49,573.42v-66.91h8.35v66.91H787.49z"/>
			<path class="st1" d="M878.9,573.42v-55.07l-22.83,55.07h-3.42l-22.73-55.07v55.07h-8.35v-66.91h11.97l20.82,50.36l20.92-50.36
				h11.97v66.91H878.9z"/>
			<path class="st1" d="M912.99,573.42v-66.91h43.95v7.42h-35.6v21.57h34.9v7.42h-34.9v23.07h35.6v7.42H912.99z"/>
		</g>
	</g>
</g>
</svg>
